<svg width="9" height="9" viewBox="0 0 9 9" fill="none" xmlns="http://www.w3.org/2000/svg">
<path d="M5.54021 4.30083H3.76272C3.61696 4.30083 3.49609 4.17996 3.49609 4.0342C3.49609 3.88845 3.61696 3.76758 3.76272 3.76758H5.54021C5.68597 3.76758 5.80684 3.88845 5.80684 4.0342C5.80684 4.17996 5.68597 4.30083 5.54021 4.30083Z" fill="url(#paint0_linear_310_3415)"/>
<path d="M4.65163 5.21113C4.50588 5.21113 4.38501 5.09026 4.38501 4.94451V3.16701C4.38501 3.02126 4.50588 2.90039 4.65163 2.90039C4.79739 2.90039 4.91826 3.02126 4.91826 3.16701V4.94451C4.91826 5.09026 4.79739 5.21113 4.65163 5.21113Z" fill="url(#paint1_linear_310_3415)"/>
<path d="M7.16504 8.33561C6.98374 8.33561 6.78466 8.28228 6.59269 8.17208L4.85786 7.20867C4.75476 7.15179 4.55213 7.15179 4.44904 7.20867L2.7142 8.17208C2.36226 8.3676 2.0032 8.38893 1.72947 8.2254C1.45574 8.06543 1.29932 7.74192 1.29932 7.34021V2.33123C1.29932 1.42827 2.0352 0.692383 2.93817 0.692383H6.36873C7.27169 0.692383 8.00758 1.42827 8.00758 2.33123V7.34021C8.00758 7.74192 7.85116 8.06543 7.57742 8.2254C7.453 8.30006 7.3108 8.33561 7.16504 8.33561ZM4.65167 6.63277C4.81875 6.63277 4.98228 6.66832 5.11382 6.74297L6.84865 7.70637C7.02996 7.80947 7.19704 7.8308 7.30369 7.76681C7.41034 7.70282 7.47077 7.54995 7.47077 7.34021V2.33123C7.47077 1.72333 6.97308 1.22563 6.36517 1.22563H2.93817C2.33026 1.22563 1.83256 1.72333 1.83256 2.33123V7.34021C1.83256 7.54995 1.893 7.70637 1.99965 7.76681C2.1063 7.82724 2.27338 7.80947 2.45469 7.70637L4.18952 6.74297C4.32106 6.66832 4.48458 6.63277 4.65167 6.63277Z" fill="url(#paint2_linear_310_3415)"/>
<defs>
<linearGradient id="paint0_linear_310_3415" x1="3.49609" y1="3.81202" x2="5.61763" y2="4.7355" gradientUnits="userSpaceOnUse">
<stop stop-color="#1C91FF"/>
<stop offset="1" stop-color="#0D88FF"/>
</linearGradient>
<linearGradient id="paint1_linear_310_3415" x1="4.38501" y1="3.09295" x2="4.96705" y2="3.10644" gradientUnits="userSpaceOnUse">
<stop stop-color="#1C91FF"/>
<stop offset="1" stop-color="#0D88FF"/>
</linearGradient>
<linearGradient id="paint2_linear_310_3415" x1="1.29932" y1="1.32932" x2="8.56877" y2="1.97022" gradientUnits="userSpaceOnUse">
<stop stop-color="#1C91FF"/>
<stop offset="1" stop-color="#0D88FF"/>
</linearGradient>
</defs>
</svg>
