<svg width="24" height="24" viewBox="0 0 24 24" fill="none" xmlns="http://www.w3.org/2000/svg">
<path d="M17.4603 22.29C18.0003 22.6 18.5603 22.75 19.0703 22.75C19.4803 22.75 19.8803 22.65 20.2303 22.44C21.0003 21.99 21.4403 21.08 21.4403 19.95V5.86C21.4403 3.32 19.3703 1.25 16.8303 1.25H7.18031C4.64031 1.25 2.57031 3.32 2.57031 5.86V19.95C2.57031 21.08 3.01031 21.99 3.78031 22.44C4.55031 22.9 5.56031 22.84 6.55031 22.29L11.4303 19.58C11.7203 19.42 12.2903 19.42 12.5803 19.58L17.4603 22.29Z" fill="white"/>
<path d="M14.5 11.4H9.5C9.09 11.4 8.75 11.06 8.75 10.65C8.75 10.24 9.09 9.90002 9.5 9.90002H14.5C14.91 9.90002 15.25 10.24 15.25 10.65C15.25 11.06 14.91 11.4 14.5 11.4Z" fill="black"/>
</svg>
