<svg width="23" height="23" viewBox="0 0 23 23" fill="none" xmlns="http://www.w3.org/2000/svg">
<path d="M13.8806 10.8297H9.40901C9.04235 10.8297 8.73828 10.5257 8.73828 10.159C8.73828 9.79235 9.04235 9.48828 9.40901 9.48828H13.8806C14.2472 9.48828 14.5513 9.79235 14.5513 10.159C14.5513 10.5257 14.2472 10.8297 13.8806 10.8297Z" fill="white"/>
<path d="M11.6444 13.1196C11.2777 13.1196 10.9736 12.8156 10.9736 12.4489V7.97737C10.9736 7.61071 11.2777 7.30664 11.6444 7.30664C12.011 7.30664 12.3151 7.61071 12.3151 7.97737V12.4489C12.3151 12.8156 12.011 13.1196 11.6444 13.1196Z" fill="white"/>
<path d="M17.968 20.9806C17.5119 20.9806 17.0111 20.8464 16.5282 20.5692L12.1639 18.1456C11.9046 18.0025 11.3948 18.0025 11.1355 18.1456L6.77126 20.5692C5.8859 21.0611 4.98265 21.1147 4.29403 20.7033C3.60541 20.3009 3.21191 19.4871 3.21191 18.4765V5.87569C3.21191 3.60415 5.06313 1.75293 7.33468 1.75293H15.9648C18.2363 1.75293 20.0875 3.60415 20.0875 5.87569V18.4765C20.0875 19.4871 19.694 20.3009 19.0054 20.7033C18.6924 20.8911 18.3347 20.9806 17.968 20.9806ZM11.6452 16.6968C12.0656 16.6968 12.477 16.7863 12.8078 16.9741L17.1721 19.3976C17.6282 19.657 18.0485 19.7107 18.3168 19.5497C18.5851 19.3887 18.7371 19.0042 18.7371 18.4765V5.87569C18.7371 4.34643 17.4851 3.09439 15.9558 3.09439H7.33468C5.80541 3.09439 4.55338 4.34643 4.55338 5.87569V18.4765C4.55338 19.0042 4.70541 19.3976 4.9737 19.5497C5.242 19.7017 5.66232 19.657 6.11842 19.3976L10.4826 16.9741C10.8135 16.7863 11.2249 16.6968 11.6452 16.6968Z" fill="white"/>
</svg>
