<svg width="24" height="25" viewBox="0 0 24 25" fill="none" xmlns="http://www.w3.org/2000/svg">
<path d="M17.4604 23.205C18.0004 23.515 18.5604 23.665 19.0704 23.665C19.4804 23.665 19.8804 23.565 20.2304 23.355C21.0004 22.905 21.4404 21.995 21.4404 20.865V6.77504C21.4404 4.23504 19.3704 2.16504 16.8304 2.16504H7.18043C4.64043 2.16504 2.57043 4.23504 2.57043 6.77504V20.865C2.57043 21.995 3.01043 22.905 3.78043 23.355C4.55043 23.815 5.56043 23.755 6.55043 23.205L11.4304 20.495C11.7204 20.335 12.2904 20.335 12.5804 20.495L17.4604 23.205Z" fill="url(#paint0_linear_748_7204)"/>
<path d="M14.5 12.3149H9.5C9.09 12.3149 8.75 11.9749 8.75 11.5649C8.75 11.1549 9.09 10.8149 9.5 10.8149H14.5C14.91 10.8149 15.25 11.1549 15.25 11.5649C15.25 11.9749 14.91 12.3149 14.5 12.3149Z" fill="white"/>
<defs>
<linearGradient id="paint0_linear_748_7204" x1="2.57043" y1="3.9567" x2="23.0191" y2="5.75954" gradientUnits="userSpaceOnUse">
<stop stop-color="#1C91FF"/>
<stop offset="1" stop-color="#0D88FF"/>
</linearGradient>
</defs>
</svg>
