<svg width="16" height="17" viewBox="0 0 16 17" fill="none" xmlns="http://www.w3.org/2000/svg">
<path d="M3.12 9.46495C2.25055 9.67276 1.47576 10.1658 0.919305 10.8655C0.362851 11.5651 0.0568019 12.431 0.050005 13.3249V16.4349C0.0486409 16.4984 0.0601243 16.5614 0.0837636 16.6202C0.107403 16.6791 0.142709 16.7325 0.187556 16.7774C0.232403 16.8222 0.285862 16.8575 0.344715 16.8812C0.403568 16.9048 0.466597 16.9163 0.530005 16.9149L3.77 16.8549C4.49386 16.8561 5.20282 16.6494 5.81263 16.2594C6.42244 15.8694 6.90744 15.3125 7.21 14.6549C7.52047 14.0352 7.64805 13.3399 7.57781 12.6503C7.50758 11.9607 7.24243 11.3053 6.8134 10.7609C6.38436 10.2165 5.80917 9.8055 5.15511 9.57599C4.50105 9.34649 3.79516 9.30797 3.12 9.46495Z" fill="white"/>
<path d="M15.26 1.37492C14.8404 1.04403 14.3122 0.882092 13.7792 0.920953C13.2463 0.959814 12.7472 1.19666 12.38 1.58492L6 7.99492C5.91328 8.08287 5.86467 8.20141 5.86467 8.32492C5.86467 8.44843 5.91328 8.56698 6 8.65492L8.25 10.9149C8.33795 11.0016 8.45649 11.0503 8.58 11.0503C8.70351 11.0503 8.82206 11.0016 8.91 10.9149L15.4 4.44492C15.5923 4.25177 15.7443 4.02238 15.8473 3.77005C15.9503 3.51772 16.0022 3.24745 16 2.97492C16.0071 2.66942 15.9441 2.36635 15.8158 2.08899C15.6875 1.81163 15.4974 1.56736 15.26 1.37492Z" fill="white"/>
</svg>
