<svg width="16" height="16" viewBox="0 0 16 16" fill="none" xmlns="http://www.w3.org/2000/svg">
<path d="M3.12 8.54991C2.25055 8.75772 1.47576 9.2508 0.919305 9.95045C0.362851 10.6501 0.0568019 11.516 0.050005 12.4099V15.5199C0.0486409 15.5833 0.0601243 15.6463 0.0837636 15.7052C0.107403 15.7641 0.142709 15.8175 0.187556 15.8624C0.232403 15.9072 0.285862 15.9425 0.344715 15.9661C0.403568 15.9898 0.466597 16.0013 0.530005 15.9999L3.77 15.9399C4.49386 15.9411 5.20282 15.7344 5.81263 15.3444C6.42244 14.9544 6.90744 14.3975 7.21 13.7399C7.52047 13.1202 7.64805 12.4248 7.57781 11.7352C7.50758 11.0456 7.24243 10.3903 6.8134 9.84589C6.38436 9.30146 5.80917 8.89046 5.15511 8.66095C4.50105 8.43145 3.79516 8.39293 3.12 8.54991Z" fill="#00B2FF"/>
<path d="M15.26 0.459881C14.8404 0.12899 14.3122 -0.0329471 13.7792 0.00591403C13.2463 0.0447752 12.7472 0.281623 12.38 0.669881L6 7.07988C5.91328 7.16783 5.86466 7.28637 5.86466 7.40988C5.86466 7.53339 5.91328 7.65194 6 7.73988L8.25 9.99988C8.33794 10.0866 8.45649 10.1352 8.58 10.1352C8.70351 10.1352 8.82205 10.0866 8.91 9.99988L15.4 3.52988C15.5923 3.33673 15.7443 3.10734 15.8473 2.85501C15.9503 2.60268 16.0022 2.33241 16 2.05988C16.0071 1.75438 15.9441 1.45131 15.8158 1.17395C15.6875 0.896594 15.4974 0.652319 15.26 0.459881Z" fill="white"/>
</svg>
