<svg width="12" height="12" viewBox="0 0 12 12" fill="none" xmlns="http://www.w3.org/2000/svg">
<path d="M6.40124 1.94849L1.58767 6.76155C1.54539 6.80411 1.51492 6.85695 1.49927 6.91487L0.463355 10.7134C0.447325 10.7721 0.44711 10.8341 0.462732 10.8929C0.478354 10.9518 0.509258 11.0054 0.55231 11.0485C0.595362 11.0915 0.649031 11.1224 0.707877 11.1381C0.766723 11.1537 0.828654 11.1535 0.88739 11.1374L4.68576 10.1015C4.74367 10.0858 4.79651 10.0554 4.83907 10.0131L9.65195 5.19932L6.40124 1.94849Z" fill="#FAFAFA"/>
<path d="M11.1964 2.18916L9.41045 0.403168C9.21619 0.208956 8.95275 0.0998535 8.67806 0.0998535C8.40337 0.0998535 8.13993 0.208956 7.94566 0.403168L7.13281 1.21605L10.3835 4.46689L11.1964 3.65401C11.3906 3.45974 11.4997 3.19628 11.4997 2.92158C11.4997 2.64689 11.3906 2.38343 11.1964 2.18916Z" fill="#FAFAFA"/>
</svg>
