<svg width="10" height="10" viewBox="0 0 10 10" fill="none" xmlns="http://www.w3.org/2000/svg">
<path d="M8.67382 0.622972C8.29857 0.327053 7.82619 0.182231 7.34956 0.216985C6.87294 0.251739 6.42656 0.463553 6.09821 0.810776L0.392517 6.5433C0.314963 6.62195 0.271484 6.72796 0.271484 6.83842C0.271484 6.94887 0.314963 7.05489 0.392517 7.13354L2.40471 9.15468C2.48336 9.23223 2.58938 9.27571 2.69983 9.27571C2.81029 9.27571 2.91631 9.23223 2.99496 9.15468L8.79902 3.3685C8.97098 3.19576 9.10695 2.99062 9.19906 2.76496C9.29116 2.53929 9.33758 2.29759 9.33561 2.05387C9.34194 1.78065 9.28559 1.50962 9.17087 1.26157C9.05615 1.01353 8.88611 0.79507 8.67382 0.622972Z" fill="white"/>
</svg>
