<svg width="19" height="19" viewBox="0 0 19 19" fill="none" xmlns="http://www.w3.org/2000/svg">
<path d="M9.04961 0C6.58951 0 6.28291 0.0118791 5.32014 0.0526074C4.35341 0.100124 3.69949 0.250027 3.12251 0.474033C2.52742 0.707089 2.02058 1.01651 1.51996 1.51996C1.01595 2.02058 0.703695 2.52742 0.474033 3.12251C0.250027 3.69949 0.100124 4.35341 0.0526074 5.32014C0.00905074 6.28348 0 6.58951 0 9.04961C0 11.5097 0.0118791 11.8163 0.0526074 12.7791C0.100124 13.743 0.250027 14.3997 0.474033 14.9767C0.707089 15.5718 1.01651 16.0786 1.51996 16.5793C2.02058 17.0833 2.52742 17.3955 3.12251 17.6252C3.69949 17.8464 4.35624 17.9991 5.32014 18.0466C6.28348 18.0902 6.58951 18.0992 9.04961 18.0992C11.5097 18.0992 11.8163 18.0873 12.7791 18.0466C13.743 17.9991 14.3997 17.8458 14.9767 17.6252C15.5718 17.3921 16.0786 17.0827 16.5793 16.5793C17.0833 16.0786 17.3955 15.5746 17.6252 14.9767C17.8464 14.3997 17.9991 13.743 18.0466 12.7791C18.0902 11.8157 18.0992 11.5097 18.0992 9.04961C18.0992 6.58951 18.0873 6.28291 18.0466 5.32014C17.9991 4.35623 17.8458 3.6961 17.6252 3.12251C17.3921 2.52742 17.0827 2.02058 16.5793 1.51996C16.0786 1.01595 15.5746 0.703695 14.9767 0.474033C14.3997 0.250027 13.743 0.100124 12.7791 0.0526074C11.8157 0.00905074 11.5097 0 9.04961 0V0ZM9.04961 1.62913C11.4656 1.62913 11.7541 1.64101 12.7089 1.68174C13.5897 1.72303 14.0694 1.87011 14.3879 1.99456C14.8127 2.15917 15.1096 2.35376 15.4309 2.67167C15.746 2.98674 15.9406 3.28712 16.1052 3.71194C16.2297 4.03041 16.3768 4.5101 16.418 5.39085C16.4588 6.3457 16.4707 6.63476 16.4707 9.05018C16.4707 11.4656 16.4588 11.7547 16.4147 12.7095C16.3671 13.5903 16.2201 14.0699 16.0962 14.3884C15.9248 14.8132 15.7336 15.1102 15.4179 15.4315C15.0995 15.7466 14.7963 15.9412 14.3748 16.1058C14.0603 16.2302 13.5738 16.3773 12.6897 16.4186C11.7298 16.4593 11.4469 16.4712 9.02472 16.4712C6.60252 16.4712 6.32025 16.4593 5.35917 16.4152C4.47842 16.3677 3.99251 16.2206 3.67404 16.0967C3.24413 15.9253 2.94941 15.7341 2.63377 15.4185C2.31529 15.1 2.11278 14.7968 1.95666 14.3754C1.82995 14.0609 1.68514 13.5744 1.63818 12.6903C1.60594 11.7416 1.59067 11.4475 1.59067 9.0366C1.59067 6.62684 1.60594 6.33212 1.63818 5.37161C1.68514 4.48747 1.82995 4.00212 1.95666 3.68648C2.11278 3.256 2.31586 2.96185 2.63377 2.64338C2.94884 2.3283 3.24413 2.12466 3.67404 1.96514C3.99251 1.84126 4.46654 1.69419 5.35069 1.65006C6.31063 1.61556 6.59347 1.60311 9.01228 1.60311L9.04961 1.62913ZM9.04961 4.40488C6.4809 4.40488 4.40375 6.48486 4.40375 9.05074C4.40375 11.6195 6.48373 13.6966 9.04961 13.6966C11.6183 13.6966 13.6955 11.6166 13.6955 9.05074C13.6955 6.48203 11.6155 4.40488 9.04961 4.40488ZM9.04961 12.0675C7.38201 12.0675 6.03289 10.7183 6.03289 9.05074C6.03289 7.38314 7.38201 6.03402 9.04961 6.03402C10.7172 6.03402 12.0663 7.38314 12.0663 9.05074C12.0663 10.7183 10.7172 12.0675 9.04961 12.0675ZM14.9688 4.21934C14.9688 4.82065 14.4795 5.306 13.881 5.306C13.2797 5.306 12.7944 4.82009 12.7944 4.21934C12.7944 3.62143 13.2831 3.13495 13.881 3.13495C14.4789 3.13495 14.9688 3.62143 14.9688 4.21934Z" fill="#A5B5D9"/>
</svg>
