<svg width="22" height="22" viewBox="0 0 22 22" fill="none" xmlns="http://www.w3.org/2000/svg">
<path d="M13.6749 17.2861C13.6749 18.6453 12.575 19.7451 11.2159 19.7451C9.85669 19.7451 8.75684 18.6453 8.75684 17.2861C8.75684 15.9269 9.85669 14.8271 11.2159 14.8271C12.575 14.8271 13.6749 15.9269 13.6749 17.2861ZM10.0981 17.2861C10.0981 17.9031 10.5989 18.4038 11.2159 18.4038C11.8329 18.4038 12.3336 17.9031 12.3336 17.2861C12.3336 16.6691 11.8329 16.1683 11.2159 16.1683C10.5989 16.1683 10.0981 16.6691 10.0981 17.2861Z" fill="#FAFAFA"/>
<path d="M13.6749 4.76753C13.6749 6.1267 12.575 7.22656 11.2159 7.22656C9.85669 7.22656 8.75684 6.1267 8.75684 4.76753C8.75684 3.40836 9.85669 2.3085 11.2159 2.3085C12.575 2.3085 13.6749 3.40836 13.6749 4.76753ZM10.0981 4.76753C10.0981 5.38452 10.5989 5.88527 11.2159 5.88527C11.8329 5.88527 12.3336 5.38452 12.3336 4.76753C12.3336 4.15054 11.8329 3.64979 11.2159 3.64979C10.5989 3.64979 10.0981 4.15054 10.0981 4.76753Z" fill="#FAFAFA"/>
<path d="M13.6749 11.0263C13.6749 12.3855 12.575 13.4854 11.2159 13.4854C9.85669 13.4854 8.75684 12.3855 8.75684 11.0263C8.75684 9.66715 9.85669 8.56729 11.2159 8.56729C12.575 8.56729 13.6749 9.66715 13.6749 11.0263ZM10.0981 11.0263C10.0981 11.6433 10.5989 12.1441 11.2159 12.1441C11.8329 12.1441 12.3336 11.6433 12.3336 11.0263C12.3336 10.4093 11.8329 9.90858 11.2159 9.90858C10.5989 9.90858 10.0981 10.4093 10.0981 11.0263Z" fill="#FAFAFA"/>
</svg>
