<svg width="24" height="24" viewBox="0 0 24 24" fill="none" xmlns="http://www.w3.org/2000/svg">
<path d="M7.19484 3.99908V5.59794H22.384V8.76292L20.6102 14.3916H6.6918L4.69324 0H0V1.59885H3.30103L5.2996 15.9905H21.7828L23.9828 9.00884V3.99908H7.19484Z" fill="#A5B5D9"/>
<path d="M8.04292 17.6045C7.19513 17.6055 6.38235 17.9427 5.78287 18.5421C5.18339 19.1416 4.84618 19.9544 4.84521 20.8022V20.8022C4.84521 21.6503 5.18212 22.4636 5.7818 23.0633C6.38149 23.663 7.19484 23.9999 8.04292 23.9999C8.89101 23.9999 9.70436 23.663 10.304 23.0633C10.9037 22.4636 11.2406 21.6503 11.2406 20.8022V20.8022C11.2397 19.9544 10.9025 19.1416 10.303 18.5421C9.70351 17.9427 8.89072 17.6054 8.04292 17.6045V17.6045ZM8.04292 22.4011C7.7267 22.4011 7.41758 22.3073 7.15465 22.1316C6.89172 21.9559 6.68679 21.7062 6.56577 21.4141C6.44476 21.1219 6.4131 20.8004 6.47479 20.4903C6.53648 20.1801 6.68876 19.8952 6.91236 19.6716C7.13597 19.448 7.42085 19.2958 7.731 19.2341C8.04115 19.1724 8.36263 19.204 8.65478 19.3251C8.94693 19.4461 9.19664 19.651 9.37232 19.9139C9.54801 20.1769 9.64178 20.486 9.64178 20.8022C9.64127 21.2261 9.47266 21.6325 9.17293 21.9322C8.87319 22.2319 8.46681 22.4006 8.04292 22.4011V22.4011Z" fill="#A5B5D9"/>
<path d="M19.2351 17.6045C18.3873 17.6055 17.5745 17.9427 16.975 18.5421C16.3755 19.1416 16.0383 19.9544 16.0374 20.8022C16.0374 21.6503 16.3743 22.4636 16.9739 23.0633C17.5736 23.663 18.387 23.9999 19.2351 23.9999C20.0831 23.9999 20.8965 23.663 21.4962 23.0633C22.0959 22.4636 22.4328 21.6503 22.4328 20.8022C22.4318 19.9544 22.0946 19.1416 21.4951 18.5421C20.8957 17.9427 20.0829 17.6054 19.2351 17.6045V17.6045ZM19.2351 22.4011C18.9188 22.4011 18.6097 22.3073 18.3468 22.1316C18.0839 21.9559 17.8789 21.7062 17.7579 21.4141C17.6369 21.1219 17.6052 20.8004 17.6669 20.4903C17.7286 20.1801 17.8809 19.8952 18.1045 19.6716C18.3281 19.448 18.613 19.2958 18.9231 19.2341C19.2333 19.1724 19.5548 19.204 19.8469 19.3251C20.1391 19.4461 20.3888 19.651 20.5645 19.9139C20.7401 20.1769 20.8339 20.486 20.8339 20.8022C20.8334 21.2261 20.6648 21.6325 20.3651 21.9322C20.0653 22.2319 19.659 22.4006 19.2351 22.4011V22.4011Z" fill="#A5B5D9"/>
</svg>
