<svg width="15" height="17" viewBox="0 0 15 17" fill="none" xmlns="http://www.w3.org/2000/svg">
<path d="M7.45888 0.0137907C8.35017 0 9.23635 0.00817229 10.1215 0C10.1751 1.04248 10.55 2.10436 11.3131 2.8414C12.0747 3.59683 13.1519 3.94262 14.2 4.05958V6.8019C13.2178 6.76972 12.231 6.56541 11.3397 6.1425C10.9515 5.96679 10.5899 5.74052 10.2359 5.50914C10.2313 7.4991 10.2441 9.4865 10.2232 11.4683C10.17 12.4203 9.85591 13.3678 9.30224 14.1524C8.41146 15.4584 6.86537 16.3098 5.27739 16.3364C4.30335 16.3921 3.33034 16.1265 2.50034 15.6372C1.12484 14.8261 0.156938 13.3413 0.0159662 11.7477C-0.000378421 11.407 -0.00599689 11.0668 0.00779385 10.7343C0.130378 9.43848 0.771392 8.19885 1.76637 7.35557C2.89414 6.37336 4.47395 5.9055 5.95313 6.18234C5.96693 7.1911 5.92657 8.19885 5.92657 9.20762C5.25083 8.98901 4.46118 9.0503 3.87073 9.46045C3.43964 9.73984 3.11224 10.1679 2.94165 10.6521C2.80067 10.9973 2.84102 11.3809 2.8492 11.7477C3.01111 12.8652 4.08577 13.8045 5.23295 13.7029C5.99349 13.6947 6.72235 13.2534 7.11871 12.6073C7.24691 12.381 7.39044 12.1496 7.3981 11.8835C7.46501 10.6653 7.43845 9.45227 7.44662 8.23409C7.45224 5.48871 7.43845 2.751 7.45939 0.0143015L7.45888 0.0137907Z" fill="#A5B5D9"/>
</svg>
