<svg width="25" height="24" viewBox="0 0 25 24" fill="none" xmlns="http://www.w3.org/2000/svg">
<path d="M21.0934 6.73046C21.0734 6.73046 21.0434 6.73046 21.0134 6.73046C15.7234 6.20046 10.4434 6.00046 5.21342 6.53046L3.17342 6.73046C2.75342 6.77046 2.38342 6.47046 2.34342 6.05046C2.30342 5.63046 2.60342 5.27046 3.01342 5.23046L5.05342 5.03046C10.3734 4.49046 15.7634 4.70046 21.1634 5.23046C21.5734 5.27046 21.8734 5.64046 21.8334 6.05046C21.8034 6.44046 21.4734 6.73046 21.0934 6.73046Z" fill="#FAFAFA"/>
<path d="M8.59449 5.72C8.55449 5.72 8.51449 5.72 8.46449 5.71C8.06449 5.64 7.78449 5.25 7.85449 4.85L8.07449 3.54C8.23449 2.58 8.45449 1.25 10.7845 1.25H13.4045C15.7445 1.25 15.9645 2.63 16.1145 3.55L16.3345 4.85C16.4045 5.26 16.1245 5.65 15.7245 5.71C15.3145 5.78 14.9245 5.5 14.8645 5.1L14.6445 3.8C14.5045 2.93 14.4745 2.76 13.4145 2.76H10.7945C9.73449 2.76 9.71449 2.9 9.56449 3.79L9.33449 5.09C9.27449 5.46 8.95449 5.72 8.59449 5.72Z" fill="#FAFAFA"/>
<path d="M15.3041 22.7496H8.88414C5.39414 22.7496 5.25414 20.8196 5.14414 19.2596L4.49414 9.18959C4.46414 8.77959 4.78414 8.41959 5.19414 8.38959C5.61414 8.36959 5.96414 8.67959 5.99414 9.08959L6.64414 19.1596C6.75414 20.6796 6.79414 21.2496 8.88414 21.2496H15.3041C17.4041 21.2496 17.4441 20.6796 17.5441 19.1596L18.1941 9.08959C18.2241 8.67959 18.5841 8.36959 18.9941 8.38959C19.4041 8.41959 19.7241 8.76959 19.6941 9.18959L19.0441 19.2596C18.9341 20.8196 18.7941 22.7496 15.3041 22.7496Z" fill="#FAFAFA"/>
<path d="M13.7538 17.25H10.4238C10.0138 17.25 9.67383 16.91 9.67383 16.5C9.67383 16.09 10.0138 15.75 10.4238 15.75H13.7538C14.1638 15.75 14.5038 16.09 14.5038 16.5C14.5038 16.91 14.1638 17.25 13.7538 17.25Z" fill="#FAFAFA"/>
<path d="M14.5938 13.25H9.59375C9.18375 13.25 8.84375 12.91 8.84375 12.5C8.84375 12.09 9.18375 11.75 9.59375 11.75H14.5938C15.0037 11.75 15.3438 12.09 15.3438 12.5C15.3438 12.91 15.0037 13.25 14.5938 13.25Z" fill="#FAFAFA"/>
</svg>
